<svg xmlns="http://www.w3.org/2000/svg" data-name="Capa 2" width="438.18" height="145.6">
    <path
        d="M56.66 0c35.93 0 53.96 13.65 56.27 39.66H89.36c-2.19-14.55-13.39-20.22-32.71-20.22-23.57 0-33.48 8.37-33.48 26.78s10.04 27.04 33.48 27.04c19.19 0 30.52-5.79 32.71-20.47h23.57c-2.32 26.14-20.35 39.92-56.27 39.92C17 92.72 0 76.23 0 46.23S17 0 56.66 0zM224.95 20.73h-43.78v70.7h-23.18v-70.7h-43.78V1.29h110.74v19.44zM318.31 64.65l16.6 26.77h-27.29l-14.56-24.07h-37.34v24.07h-23.18V47.7h.02v.07h64.36c6.96 0 17.78 0 17.78-13.52S303.88 20.6 296.92 20.6h-64.36v.09h-.02V1.29h70.82c20.48 0 34.52 13 34.52 33.08 0 14.68-7.48 25.5-19.57 30.28zM438.18 71.98v19.44h-92.72V1.29h23.18v70.7h69.54z" />
    <g>
        <path
            d="M8.64 133.55c0 3.55 2.88 5.18 13.83 5.18 9.07 0 11.81-1.01 11.81-3.65 0-2.78-1.92-3.26-12.82-3.79-14.64-.67-20.45-2.98-20.45-10.51s7.54-9.74 20.11-9.74 20.35 3.17 20.35 11.47h-8.64c0-3.7-3.7-4.61-12.67-4.61-8.5 0-10.51.82-10.51 3.31s2.02 3.07 11.81 3.65c13.25.72 21.46 1.44 21.46 9.94 0 8.98-8.5 10.8-20.93 10.8C8.21 145.6 0 143.25 0 133.55h8.64zM84.2 118.76H67.88v26.35h-8.64v-26.35H42.92v-7.25H84.2v7.25zM108.43 145.6c-14.79 0-21.12-5.62-21.12-17.33v-16.75h8.64v16.75c0 4.7 1.3 10.08 12.48 10.08s12.48-5.42 12.48-10.08v-16.75h8.64v16.75c0 11.67-6.38 17.33-21.12 17.33zM173.86 128.32c0 11.43-7.63 16.8-16.32 16.8h-24.39v-33.6h24.39c8.69 0 16.32 5.38 16.32 16.8zm-8.64 0c0-8.16-4.42-9.55-10.94-9.55H141.8v19.11h12.48c6.53 0 10.94-1.39 10.94-9.55zM185.62 145.12h-8.64v-33.6h8.64v33.6zM188.5 128.27c0-11.14 6.34-17.23 21.12-17.23s21.12 6.14 21.12 17.23-6.38 17.33-21.12 17.33-21.12-6.14-21.12-17.33zm33.6 0c0-6.82-3.46-9.98-12.48-9.98s-12.48 3.12-12.48 9.98 3.5 10.08 12.48 10.08 12.48-3.22 12.48-10.08z" />
    </g>
</svg>