<svg xmlns="http://www.w3.org/2000/svg" xmlns:xlink="http://www.w3.org/1999/xlink" width="239" zoomAndPan="magnify" viewBox="0 0 179.25 179.249996" height="239" preserveAspectRatio="xMidYMid meet" version="1.0"><defs><clipPath id="64a973bd58"><path d="M 0 0 L 177.839844 0 L 177.839844 177.839844 L 0 177.839844 Z M 0 0 " clip-rule="nonzero"/></clipPath><clipPath id="97b7218f3e"><path d="M 27.632812 0 L 150.203125 0 C 157.535156 0 164.5625 2.910156 169.746094 8.09375 C 174.925781 13.277344 177.839844 20.304688 177.839844 27.632812 L 177.839844 150.203125 C 177.839844 157.535156 174.925781 164.5625 169.746094 169.746094 C 164.5625 174.925781 157.535156 177.839844 150.203125 177.839844 L 27.632812 177.839844 C 20.304688 177.839844 13.277344 174.925781 8.09375 169.746094 C 2.910156 164.5625 0 157.535156 0 150.203125 L 0 27.632812 C 0 20.304688 2.910156 13.277344 8.09375 8.09375 C 13.277344 2.910156 20.304688 0 27.632812 0 Z M 27.632812 0 " clip-rule="nonzero"/></clipPath><clipPath id="02d412c358"><path d="M 0 0 L 177.839844 0 L 177.839844 177.839844 L 0 177.839844 Z M 0 0 " clip-rule="nonzero"/></clipPath><clipPath id="1b3d7e6b82"><path d="M 27.632812 0 L 150.203125 0 C 157.535156 0 164.5625 2.910156 169.746094 8.09375 C 174.925781 13.277344 177.839844 20.304688 177.839844 27.632812 L 177.839844 150.203125 C 177.839844 157.535156 174.925781 164.5625 169.746094 169.746094 C 164.5625 174.925781 157.535156 177.839844 150.203125 177.839844 L 27.632812 177.839844 C 20.304688 177.839844 13.277344 174.925781 8.09375 169.746094 C 2.910156 164.5625 0 157.535156 0 150.203125 L 0 27.632812 C 0 20.304688 2.910156 13.277344 8.09375 8.09375 C 13.277344 2.910156 20.304688 0 27.632812 0 Z M 27.632812 0 " clip-rule="nonzero"/></clipPath><clipPath id="ca57e8da23"><rect x="0" width="178" y="0" height="178"/></clipPath><clipPath id="047bd89506"><path d="M 23.160156 33 L 154.609375 33 L 154.609375 146.15625 L 23.160156 146.15625 Z M 23.160156 33 " clip-rule="nonzero"/></clipPath></defs><g clip-path="url(#64a973bd58)"><g clip-path="url(#97b7218f3e)"><g transform="matrix(1, 0, 0, 1, -0, 0)"><g clip-path="url(#ca57e8da23)"><g clip-path="url(#02d412c358)"><g clip-path="url(#1b3d7e6b82)"><path fill="#b80f2e" d="M 0 0 L 177.839844 0 L 177.839844 177.839844 L 0 177.839844 Z M 0 0 " fill-opacity="1" fill-rule="nonzero"/></g></g></g></g></g></g><g clip-path="url(#047bd89506)"><path fill="#fafafa" d="M 130.621094 112.628906 L 151.324219 146.011719 L 117.289062 146.011719 L 99.132812 115.996094 L 52.566406 115.996094 L 52.566406 146.011719 L 23.660156 146.011719 L 23.660156 91.488281 L 23.683594 91.488281 L 23.683594 91.578125 L 103.945312 91.578125 C 112.625 91.578125 126.121094 91.578125 126.121094 74.714844 C 126.121094 57.855469 112.625 57.695312 103.945312 57.695312 L 23.683594 57.695312 L 23.683594 57.804688 L 23.660156 57.804688 L 23.660156 33.613281 L 111.976562 33.613281 C 137.519531 33.613281 155.027344 49.824219 155.027344 74.867188 C 155.027344 93.171875 145.699219 106.667969 130.621094 112.628906 Z M 130.621094 112.628906 " fill-opacity="1" fill-rule="nonzero"/></g></svg>