<svg xmlns="http://www.w3.org/2000/svg" xmlns:xlink="http://www.w3.org/1999/xlink" width="255" zoomAndPan="magnify" viewBox="0 0 191.25 50.999998" height="68" preserveAspectRatio="xMidYMid meet" version="1.0"><defs><clipPath id="123db34a50"><path d="M 0 0.0976562 L 190.460938 0.0976562 L 190.460938 50.890625 L 0 50.890625 Z M 0 0.0976562 " clip-rule="nonzero"/></clipPath><clipPath id="a7f769ccd9"><path d="M 19.425781 0.0976562 L 170.957031 0.0976562 C 176.105469 0.0976562 181.046875 2.144531 184.691406 5.789062 C 188.332031 9.429688 190.378906 14.371094 190.378906 19.523438 L 190.378906 31.464844 C 190.378906 36.617188 188.332031 41.558594 184.691406 45.199219 C 181.046875 48.84375 176.105469 50.890625 170.957031 50.890625 L 19.425781 50.890625 C 14.273438 50.890625 9.332031 48.84375 5.6875 45.199219 C 2.046875 41.558594 0 36.617188 0 31.464844 L 0 19.523438 C 0 14.371094 2.046875 9.429688 5.6875 5.789062 C 9.332031 2.144531 14.273438 0.0976562 19.425781 0.0976562 Z M 19.425781 0.0976562 " clip-rule="nonzero"/></clipPath><clipPath id="261ed47306"><path d="M 0 0.0976562 L 190.460938 0.0976562 L 190.460938 50.890625 L 0 50.890625 Z M 0 0.0976562 " clip-rule="nonzero"/></clipPath><clipPath id="021086de12"><path d="M 19.425781 0.0976562 L 170.957031 0.0976562 C 176.105469 0.0976562 181.046875 2.144531 184.691406 5.789062 C 188.332031 9.429688 190.378906 14.371094 190.378906 19.523438 L 190.378906 31.464844 C 190.378906 36.617188 188.332031 41.558594 184.691406 45.199219 C 181.046875 48.84375 176.105469 50.890625 170.957031 50.890625 L 19.425781 50.890625 C 14.273438 50.890625 9.332031 48.84375 5.6875 45.199219 C 2.046875 41.558594 0 36.617188 0 31.464844 L 0 19.523438 C 0 14.371094 2.046875 9.429688 5.6875 5.789062 C 9.332031 2.144531 14.273438 0.0976562 19.425781 0.0976562 Z M 19.425781 0.0976562 " clip-rule="nonzero"/></clipPath><clipPath id="810449dba1"><rect x="0" width="191" y="0" height="51"/></clipPath><clipPath id="35eb79bfd5"><path d="M 150.230469 14.691406 L 171.894531 14.691406 L 171.894531 36.359375 L 150.230469 36.359375 Z M 150.230469 14.691406 " clip-rule="nonzero"/></clipPath></defs><g clip-path="url(#123db34a50)"><g clip-path="url(#a7f769ccd9)"><g transform="matrix(1, 0, 0, 1, 0, 0.000000000000000153)"><g clip-path="url(#810449dba1)"><g clip-path="url(#261ed47306)"><g clip-path="url(#021086de12)"><path fill="#a50136" d="M 0 0.0976562 L 190.460938 0.0976562 L 190.460938 50.890625 L 0 50.890625 Z M 0 0.0976562 " fill-opacity="1" fill-rule="nonzero"/></g></g></g></g></g></g><g clip-path="url(#35eb79bfd5)"><path fill="#fafafa" d="M 171.824219 14.691406 L 171.824219 36.265625 L 167.507812 36.265625 L 167.507812 22.0625 L 153.285156 36.289062 L 150.230469 33.234375 L 164.453125 19.011719 L 150.25 19.011719 L 150.25 14.691406 Z M 171.824219 14.691406 " fill-opacity="1" fill-rule="nonzero"/></g></svg>