<svg xmlns="http://www.w3.org/2000/svg" xmlns:xlink="http://www.w3.org/1999/xlink" width="788" zoomAndPan="magnify"
    viewBox="0 0 591 125.249995" height="167" preserveAspectRatio="xMidYMid meet" version="1.0">
    <defs>
        <clipPath id="2dc1d73e50">
            <path d="M 1.757812 0 L 154 0 L 154 124.503906 L 1.757812 124.503906 Z M 1.757812 0 " clip-rule="nonzero" />
        </clipPath>
        <clipPath id="fb47c99c8a">
            <path d="M 464 1 L 589.238281 1 L 589.238281 123 L 464 123 Z M 464 1 " clip-rule="nonzero" />
        </clipPath>
        <clipPath id="0dd67ed2c1">
            <path
                d="M 230.921875 59.824219 L 239.058594 59.824219 L 239.058594 67.964844 L 230.921875 67.964844 Z M 230.921875 59.824219 "
                clip-rule="nonzero" />
        </clipPath>
        <clipPath id="947176e962">
            <path
                d="M 234.992188 59.824219 C 232.742188 59.824219 230.921875 61.648438 230.921875 63.894531 C 230.921875 66.144531 232.742188 67.964844 234.992188 67.964844 C 237.238281 67.964844 239.058594 66.144531 239.058594 63.894531 C 239.058594 61.648438 237.238281 59.824219 234.992188 59.824219 Z M 234.992188 59.824219 "
                clip-rule="nonzero" />
        </clipPath>
        <clipPath id="2e074201a6">
            <path
                d="M 0.921875 0.824219 L 9.058594 0.824219 L 9.058594 8.964844 L 0.921875 8.964844 Z M 0.921875 0.824219 "
                clip-rule="nonzero" />
        </clipPath>
        <clipPath id="ddcc5a767a">
            <path
                d="M 4.992188 0.824219 C 2.742188 0.824219 0.921875 2.648438 0.921875 4.894531 C 0.921875 7.144531 2.742188 8.964844 4.992188 8.964844 C 7.238281 8.964844 9.058594 7.144531 9.058594 4.894531 C 9.058594 2.648438 7.238281 0.824219 4.992188 0.824219 Z M 4.992188 0.824219 "
                clip-rule="nonzero" />
        </clipPath>
        <clipPath id="6be887dd54">
            <rect x="0" width="10" y="0" height="9" />
        </clipPath>
    </defs>
    <g clip-path="url(#2dc1d73e50)">
        <path fill="#000000"
            d="M 77.726562 0.128906 C 125.898438 0.128906 150.070312 18.414062 153.167969 53.265625 L 121.566406 53.265625 C 118.628906 33.769531 103.613281 26.171875 77.710938 26.171875 C 46.109375 26.171875 32.824219 37.386719 32.824219 62.054688 C 32.824219 86.71875 46.285156 98.28125 77.710938 98.28125 C 103.441406 98.28125 118.628906 90.523438 121.566406 70.855469 L 153.167969 70.855469 C 150.058594 105.878906 125.882812 124.339844 77.726562 124.339844 C 24.550781 124.355469 1.757812 102.261719 1.757812 62.066406 C 1.757812 21.871094 24.550781 0.128906 77.726562 0.128906 Z M 77.726562 0.128906 "
            fill-opacity="1" fill-rule="nonzero" />
    </g>
    <path fill="#000000"
        d="M 303.355469 27.902344 L 244.660156 27.902344 L 244.660156 122.625 L 213.582031 122.625 L 213.582031 27.902344 L 154.882812 27.902344 L 154.882812 1.855469 L 303.355469 1.855469 Z M 303.355469 27.902344 "
        fill-opacity="1" fill-rule="nonzero" />
    <path fill="#000000"
        d="M 428.527344 86.746094 L 450.785156 122.613281 L 414.195312 122.613281 L 394.675781 90.363281 L 344.609375 90.363281 L 344.609375 122.613281 L 313.53125 122.613281 L 313.53125 64.035156 L 313.558594 64.035156 L 313.558594 64.128906 L 399.847656 64.128906 C 409.179688 64.128906 423.6875 64.128906 423.6875 46.015625 C 423.6875 27.902344 409.179688 27.726562 399.847656 27.726562 L 313.558594 27.726562 L 313.558594 27.847656 L 313.53125 27.847656 L 313.53125 1.855469 L 408.484375 1.855469 C 435.941406 1.855469 454.765625 19.273438 454.765625 46.175781 C 454.765625 65.84375 444.738281 80.339844 428.527344 86.746094 Z M 428.527344 86.746094 "
        fill-opacity="1" fill-rule="nonzero" />
    <g clip-path="url(#fb47c99c8a)">
        <path fill="#000000"
            d="M 589.242188 96.566406 L 589.242188 122.613281 L 464.929688 122.613281 L 464.929688 1.855469 L 496.007812 1.855469 L 496.007812 96.578125 L 589.242188 96.578125 Z M 589.242188 96.566406 "
            fill-opacity="1" fill-rule="nonzero" />
    </g>
    <g clip-path="url(#0dd67ed2c1)">
        <g clip-path="url(#947176e962)">
            <g transform="matrix(1, 0, 0, 1, 230, 59)">
                <g clip-path="url(#6be887dd54)">
                    <g clip-path="url(#2e074201a6)">
                        <g clip-path="url(#ddcc5a767a)">
                            <path fill="currentColor"
                                d="M 0.921875 0.824219 L 9.058594 0.824219 L 9.058594 8.964844 L 0.921875 8.964844 Z M 0.921875 0.824219 "
                                fill-opacity="1" fill-rule="nonzero" />
                        </g>
                    </g>
                </g>
            </g>
        </g>
    </g>
</svg>