<svg xmlns="http://www.w3.org/2000/svg" xmlns:xlink="http://www.w3.org/1999/xlink" width="403" zoomAndPan="magnify" viewBox="0 0 302.25 65.249999" height="87" preserveAspectRatio="xMidYMid meet" version="1.0"><defs><g/><clipPath id="544da25fad"><path d="M 1.347656 13.320312 L 38 13.320312 L 38 44 L 1.347656 44 Z M 1.347656 13.320312 " clip-rule="nonzero"/></clipPath><clipPath id="870b8525b5"><path d="M 37 13.320312 L 73 13.320312 L 73 43 L 37 43 Z M 37 13.320312 " clip-rule="nonzero"/></clipPath><clipPath id="1fcbd5ed0a"><path d="M 75 13.320312 L 109 13.320312 L 109 43 L 75 43 Z M 75 13.320312 " clip-rule="nonzero"/></clipPath><clipPath id="f3aa51d69f"><path d="M 111 13.320312 L 140.746094 13.320312 L 140.746094 43 L 111 43 Z M 111 13.320312 " clip-rule="nonzero"/></clipPath><clipPath id="62b0dab7d2"><path d="M 1.347656 48 L 15 48 L 15 60 L 1.347656 60 Z M 1.347656 48 " clip-rule="nonzero"/></clipPath></defs><g fill="#000000" fill-opacity="1"><g transform="translate(162.487842, 41.297325)"><g><path d="M 19.390625 -11.0625 C 20.148438 -11.0625 20.796875 -11.332031 21.328125 -11.875 C 21.867188 -12.414062 22.140625 -13.078125 22.140625 -13.859375 C 22.140625 -14.609375 21.867188 -15.253906 21.328125 -15.796875 C 20.796875 -16.335938 20.148438 -16.609375 19.390625 -16.609375 C 18.609375 -16.609375 17.945312 -16.875 17.40625 -17.40625 C 16.875 -17.945312 16.609375 -18.609375 16.609375 -19.390625 C 16.609375 -20.148438 16.335938 -20.796875 15.796875 -21.328125 C 15.253906 -21.867188 14.609375 -22.140625 13.859375 -22.140625 C 13.078125 -22.140625 12.414062 -21.867188 11.875 -21.328125 C 11.332031 -20.796875 11.0625 -20.148438 11.0625 -19.390625 C 11.0625 -18.609375 10.789062 -17.945312 10.25 -17.40625 C 9.71875 -16.875 9.070312 -16.609375 8.3125 -16.609375 C 7.53125 -16.609375 6.867188 -16.335938 6.328125 -15.796875 C 5.796875 -15.253906 5.53125 -14.609375 5.53125 -13.859375 C 5.53125 -13.078125 5.796875 -12.414062 6.328125 -11.875 C 6.867188 -11.332031 7.53125 -11.0625 8.3125 -11.0625 Z M 24.921875 -16.609375 C 25.679688 -16.609375 26.328125 -16.335938 26.859375 -15.796875 C 27.398438 -15.253906 27.671875 -14.609375 27.671875 -13.859375 L 27.671875 -2.78125 C 27.671875 -2 27.398438 -1.335938 26.859375 -0.796875 C 26.328125 -0.265625 25.679688 0 24.921875 0 C 24.140625 0 23.476562 -0.265625 22.9375 -0.796875 C 22.40625 -1.335938 22.140625 -2 22.140625 -2.78125 C 22.140625 -3.539062 21.867188 -4.1875 21.328125 -4.71875 C 20.796875 -5.257812 20.148438 -5.53125 19.390625 -5.53125 L 8.3125 -5.53125 C 7.53125 -5.53125 6.867188 -5.257812 6.328125 -4.71875 C 5.796875 -4.1875 5.53125 -3.539062 5.53125 -2.78125 C 5.53125 -2 5.257812 -1.335938 4.71875 -0.796875 C 4.1875 -0.265625 3.539062 0 2.78125 0 C 2 0 1.335938 -0.265625 0.796875 -0.796875 C 0.265625 -1.335938 0 -2 0 -2.78125 L 0 -13.859375 C 0 -14.609375 0.265625 -15.253906 0.796875 -15.796875 C 1.335938 -16.335938 2 -16.609375 2.78125 -16.609375 C 3.539062 -16.609375 4.1875 -16.875 4.71875 -17.40625 C 5.257812 -17.945312 5.53125 -18.609375 5.53125 -19.390625 L 5.53125 -24.921875 C 5.53125 -25.679688 5.796875 -26.328125 6.328125 -26.859375 C 6.867188 -27.398438 7.53125 -27.671875 8.3125 -27.671875 L 19.390625 -27.671875 C 20.148438 -27.671875 20.796875 -27.398438 21.328125 -26.859375 C 21.867188 -26.328125 22.140625 -25.679688 22.140625 -24.921875 L 22.140625 -19.390625 C 22.140625 -18.609375 22.40625 -17.945312 22.9375 -17.40625 C 23.476562 -16.875 24.140625 -16.609375 24.921875 -16.609375 Z M 24.921875 -16.609375 "/></g></g></g><g fill="#000000" fill-opacity="1"><g transform="translate(191.744286, 41.297325)"><g><path d="M 22.140625 -8.3125 L 22.140625 -19.390625 C 22.140625 -20.148438 21.867188 -20.796875 21.328125 -21.328125 C 20.796875 -21.867188 20.148438 -22.140625 19.390625 -22.140625 L 8.3125 -22.140625 C 7.53125 -22.140625 6.867188 -21.867188 6.328125 -21.328125 C 5.796875 -20.796875 5.53125 -20.148438 5.53125 -19.390625 L 5.53125 -8.3125 C 5.53125 -7.53125 5.796875 -6.867188 6.328125 -6.328125 C 6.867188 -5.796875 7.53125 -5.53125 8.3125 -5.53125 L 19.390625 -5.53125 C 20.148438 -5.53125 20.796875 -5.796875 21.328125 -6.328125 C 21.867188 -6.867188 22.140625 -7.53125 22.140625 -8.3125 Z M 24.921875 -22.140625 C 25.679688 -22.140625 26.328125 -21.867188 26.859375 -21.328125 C 27.398438 -20.796875 27.671875 -20.148438 27.671875 -19.390625 L 27.671875 -8.3125 C 27.671875 -7.53125 27.398438 -6.867188 26.859375 -6.328125 C 26.328125 -5.796875 25.679688 -5.53125 24.921875 -5.53125 C 24.140625 -5.53125 23.476562 -5.257812 22.9375 -4.71875 C 22.40625 -4.1875 22.140625 -3.539062 22.140625 -2.78125 C 22.140625 -2 21.867188 -1.335938 21.328125 -0.796875 C 20.796875 -0.265625 20.148438 0 19.390625 0 L 2.78125 0 C 2 0 1.335938 -0.265625 0.796875 -0.796875 C 0.265625 -1.335938 0 -2 0 -2.78125 L 0 -24.921875 C 0 -25.679688 0.265625 -26.328125 0.796875 -26.859375 C 1.335938 -27.398438 2 -27.671875 2.78125 -27.671875 L 19.390625 -27.671875 C 20.148438 -27.671875 20.796875 -27.398438 21.328125 -26.859375 C 21.867188 -26.328125 22.140625 -25.679688 22.140625 -24.921875 C 22.140625 -24.140625 22.40625 -23.476562 22.9375 -22.9375 C 23.476562 -22.40625 24.140625 -22.140625 24.921875 -22.140625 Z M 24.921875 -22.140625 "/></g></g></g><g fill="#000000" fill-opacity="1"><g transform="translate(221.000731, 41.297325)"><g><path d="M 27.671875 -24.921875 L 27.671875 -2.78125 C 27.671875 -2 27.398438 -1.335938 26.859375 -0.796875 C 26.328125 -0.265625 25.679688 0 24.921875 0 C 24.140625 0 23.476562 -0.265625 22.9375 -0.796875 C 22.40625 -1.335938 22.140625 -2 22.140625 -2.78125 L 22.140625 -13.859375 C 22.140625 -14.609375 21.867188 -15.253906 21.328125 -15.796875 C 20.796875 -16.335938 20.148438 -16.609375 19.390625 -16.609375 C 18.609375 -16.609375 17.945312 -16.335938 17.40625 -15.796875 C 16.875 -15.253906 16.609375 -14.609375 16.609375 -13.859375 L 16.609375 -8.3125 C 16.609375 -7.53125 16.335938 -6.867188 15.796875 -6.328125 C 15.253906 -5.796875 14.609375 -5.53125 13.859375 -5.53125 C 13.078125 -5.53125 12.414062 -5.796875 11.875 -6.328125 C 11.332031 -6.867188 11.0625 -7.53125 11.0625 -8.3125 L 11.0625 -13.859375 C 11.0625 -14.609375 10.789062 -15.253906 10.25 -15.796875 C 9.71875 -16.335938 9.070312 -16.609375 8.3125 -16.609375 C 7.53125 -16.609375 6.867188 -16.335938 6.328125 -15.796875 C 5.796875 -15.253906 5.53125 -14.609375 5.53125 -13.859375 L 5.53125 -2.78125 C 5.53125 -2 5.257812 -1.335938 4.71875 -0.796875 C 4.1875 -0.265625 3.539062 0 2.78125 0 C 2 0 1.335938 -0.265625 0.796875 -0.796875 C 0.265625 -1.335938 0 -2 0 -2.78125 L 0 -24.921875 C 0 -25.679688 0.265625 -26.328125 0.796875 -26.859375 C 1.335938 -27.398438 2 -27.671875 2.78125 -27.671875 C 3.539062 -27.671875 4.1875 -27.398438 4.71875 -26.859375 C 5.257812 -26.328125 5.53125 -25.679688 5.53125 -24.921875 C 5.53125 -24.140625 5.796875 -23.476562 6.328125 -22.9375 C 6.867188 -22.40625 7.53125 -22.140625 8.3125 -22.140625 C 9.070312 -22.140625 9.71875 -21.867188 10.25 -21.328125 C 10.789062 -20.796875 11.0625 -20.148438 11.0625 -19.390625 C 11.0625 -18.609375 11.332031 -17.945312 11.875 -17.40625 C 12.414062 -16.875 13.078125 -16.609375 13.859375 -16.609375 C 14.609375 -16.609375 15.253906 -16.875 15.796875 -17.40625 C 16.335938 -17.945312 16.609375 -18.609375 16.609375 -19.390625 C 16.609375 -20.148438 16.875 -20.796875 17.40625 -21.328125 C 17.945312 -21.867188 18.609375 -22.140625 19.390625 -22.140625 C 20.148438 -22.140625 20.796875 -22.40625 21.328125 -22.9375 C 21.867188 -23.476562 22.140625 -24.140625 22.140625 -24.921875 C 22.140625 -25.679688 22.40625 -26.328125 22.9375 -26.859375 C 23.476562 -27.398438 24.140625 -27.671875 24.921875 -27.671875 C 25.679688 -27.671875 26.328125 -27.398438 26.859375 -26.859375 C 27.398438 -26.328125 27.671875 -25.679688 27.671875 -24.921875 Z M 27.671875 -24.921875 "/></g></g></g><g fill="#000000" fill-opacity="1"><g transform="translate(250.257176, 41.297325)"><g><path d="M 5.53125 -24.921875 L 5.53125 -2.78125 C 5.53125 -2 5.257812 -1.335938 4.71875 -0.796875 C 4.1875 -0.265625 3.539062 0 2.78125 0 C 2 0 1.335938 -0.265625 0.796875 -0.796875 C 0.265625 -1.335938 0 -2 0 -2.78125 L 0 -24.921875 C 0 -25.679688 0.265625 -26.328125 0.796875 -26.859375 C 1.335938 -27.398438 2 -27.671875 2.78125 -27.671875 C 3.539062 -27.671875 4.1875 -27.398438 4.71875 -26.859375 C 5.257812 -26.328125 5.53125 -25.679688 5.53125 -24.921875 Z M 5.53125 -24.921875 "/></g></g></g><g fill="#000000" fill-opacity="1"><g transform="translate(257.373608, 41.297325)"><g><path d="M 27.671875 -24.921875 L 27.671875 -2.78125 C 27.671875 -2 27.398438 -1.335938 26.859375 -0.796875 C 26.328125 -0.265625 25.679688 0 24.921875 0 C 24.140625 0 23.476562 -0.265625 22.9375 -0.796875 C 22.40625 -1.335938 22.140625 -2 22.140625 -2.78125 C 22.140625 -3.539062 21.867188 -4.1875 21.328125 -4.71875 C 20.796875 -5.257812 20.148438 -5.53125 19.390625 -5.53125 C 18.609375 -5.53125 17.945312 -5.796875 17.40625 -6.328125 C 16.875 -6.867188 16.609375 -7.53125 16.609375 -8.3125 C 16.609375 -9.070312 16.335938 -9.71875 15.796875 -10.25 C 15.253906 -10.789062 14.609375 -11.0625 13.859375 -11.0625 C 13.078125 -11.0625 12.414062 -11.332031 11.875 -11.875 C 11.332031 -12.414062 11.0625 -13.078125 11.0625 -13.859375 C 11.0625 -14.609375 10.789062 -15.253906 10.25 -15.796875 C 9.71875 -16.335938 9.070312 -16.609375 8.3125 -16.609375 C 7.53125 -16.609375 6.867188 -16.335938 6.328125 -15.796875 C 5.796875 -15.253906 5.53125 -14.609375 5.53125 -13.859375 L 5.53125 -2.78125 C 5.53125 -2 5.257812 -1.335938 4.71875 -0.796875 C 4.1875 -0.265625 3.539062 0 2.78125 0 C 2 0 1.335938 -0.265625 0.796875 -0.796875 C 0.265625 -1.335938 0 -2 0 -2.78125 L 0 -24.921875 C 0 -25.679688 0.265625 -26.328125 0.796875 -26.859375 C 1.335938 -27.398438 2 -27.671875 2.78125 -27.671875 C 3.539062 -27.671875 4.1875 -27.398438 4.71875 -26.859375 C 5.257812 -26.328125 5.53125 -25.679688 5.53125 -24.921875 C 5.53125 -24.140625 5.796875 -23.476562 6.328125 -22.9375 C 6.867188 -22.40625 7.53125 -22.140625 8.3125 -22.140625 C 9.070312 -22.140625 9.71875 -21.867188 10.25 -21.328125 C 10.789062 -20.796875 11.0625 -20.148438 11.0625 -19.390625 C 11.0625 -18.609375 11.332031 -17.945312 11.875 -17.40625 C 12.414062 -16.875 13.078125 -16.609375 13.859375 -16.609375 C 14.609375 -16.609375 15.253906 -16.335938 15.796875 -15.796875 C 16.335938 -15.253906 16.609375 -14.609375 16.609375 -13.859375 C 16.609375 -13.078125 16.875 -12.414062 17.40625 -11.875 C 17.945312 -11.332031 18.609375 -11.0625 19.390625 -11.0625 C 20.148438 -11.0625 20.796875 -11.332031 21.328125 -11.875 C 21.867188 -12.414062 22.140625 -13.078125 22.140625 -13.859375 L 22.140625 -24.921875 C 22.140625 -25.679688 22.40625 -26.328125 22.9375 -26.859375 C 23.476562 -27.398438 24.140625 -27.671875 24.921875 -27.671875 C 25.679688 -27.671875 26.328125 -27.398438 26.859375 -26.859375 C 27.398438 -26.328125 27.671875 -25.679688 27.671875 -24.921875 Z M 27.671875 -24.921875 "/></g></g></g><g clip-path="url(#544da25fad)"><path fill="#000000" d="M 19.371094 13.351562 C 30.800781 13.351562 36.539062 17.722656 37.273438 26.058594 L 29.773438 26.058594 C 29.078125 21.394531 25.515625 19.578125 19.367188 19.578125 C 11.871094 19.578125 8.71875 22.261719 8.71875 28.160156 C 8.71875 34.058594 11.910156 36.824219 19.367188 36.824219 C 25.472656 36.824219 29.078125 34.96875 29.773438 30.265625 L 37.273438 30.265625 C 36.535156 38.640625 30.800781 43.054688 19.371094 43.054688 C 6.753906 43.058594 1.347656 37.773438 1.347656 28.164062 C 1.347656 18.550781 6.753906 13.351562 19.371094 13.351562 Z M 19.371094 13.351562 " fill-opacity="1" fill-rule="nonzero"/></g><g clip-path="url(#870b8525b5)"><path fill="#000000" d="M 72.910156 19.992188 L 58.980469 19.992188 L 58.980469 42.644531 L 51.609375 42.644531 L 51.609375 19.992188 L 37.679688 19.992188 L 37.679688 13.761719 L 72.910156 13.761719 Z M 72.910156 19.992188 " fill-opacity="1" fill-rule="nonzero"/></g><g clip-path="url(#1fcbd5ed0a)"><path fill="#000000" d="M 102.609375 34.0625 L 107.890625 42.640625 L 99.210938 42.640625 L 94.578125 34.929688 L 82.699219 34.929688 L 82.699219 42.640625 L 75.324219 42.640625 L 75.324219 28.632812 L 75.332031 28.632812 L 75.332031 28.65625 L 95.804688 28.65625 C 98.019531 28.65625 101.460938 28.65625 101.460938 24.324219 C 101.460938 19.992188 98.019531 19.949219 95.804688 19.949219 L 75.332031 19.949219 L 75.332031 19.980469 L 75.324219 19.980469 L 75.324219 13.761719 L 97.855469 13.761719 C 104.371094 13.761719 108.835938 17.929688 108.835938 24.363281 C 108.835938 29.066406 106.457031 32.53125 102.609375 34.0625 Z M 102.609375 34.0625 " fill-opacity="1" fill-rule="nonzero"/></g><g clip-path="url(#f3aa51d69f)"><path fill="#000000" d="M 140.746094 36.414062 L 140.746094 42.640625 L 111.246094 42.640625 L 111.246094 13.761719 L 118.621094 13.761719 L 118.621094 36.414062 Z M 140.746094 36.414062 " fill-opacity="1" fill-rule="nonzero"/></g><g clip-path="url(#62b0dab7d2)"><path fill="#000000" d="M 4.09375 56.140625 C 4.09375 57.277344 5.011719 57.800781 8.496094 57.800781 C 11.378906 57.800781 12.253906 57.476562 12.253906 56.628906 C 12.253906 55.738281 11.640625 55.585938 8.171875 55.417969 C 3.515625 55.203125 1.667969 54.460938 1.667969 52.046875 C 1.667969 49.636719 4.066406 48.929688 8.066406 48.929688 C 12.0625 48.929688 14.539062 49.945312 14.539062 52.601562 L 11.789062 52.601562 C 11.789062 51.417969 10.613281 51.125 7.761719 51.125 C 5.054688 51.125 4.417969 51.386719 4.417969 52.1875 C 4.417969 52.984375 5.058594 53.171875 8.171875 53.355469 C 12.390625 53.585938 15 53.816406 15 56.539062 C 15 59.417969 12.296875 60 8.34375 60 C 3.957031 60 1.347656 59.25 1.347656 56.140625 Z M 4.09375 56.140625 " fill-opacity="1" fill-rule="nonzero"/></g><path fill="#000000" d="M 28.132812 51.402344 L 22.941406 51.402344 L 22.941406 59.84375 L 20.191406 59.84375 L 20.191406 51.402344 L 15 51.402344 L 15 49.078125 L 28.132812 49.078125 Z M 28.132812 51.402344 " fill-opacity="1" fill-rule="nonzero"/><path fill="#000000" d="M 35.839844 60 C 31.136719 60 29.121094 58.199219 29.121094 54.449219 L 29.121094 49.082031 L 31.871094 49.082031 L 31.871094 54.449219 C 31.871094 55.953125 32.285156 57.679688 35.839844 57.679688 C 39.398438 57.679688 39.8125 55.941406 39.8125 54.449219 L 39.8125 49.082031 L 42.558594 49.082031 L 42.558594 54.449219 C 42.558594 58.1875 40.53125 60 35.839844 60 Z M 35.839844 60 " fill-opacity="1" fill-rule="nonzero"/><path fill="#000000" d="M 56.65625 54.464844 C 56.65625 58.125 54.230469 59.847656 51.464844 59.847656 L 43.707031 59.847656 L 43.707031 49.082031 L 51.464844 49.082031 C 54.230469 49.082031 56.65625 50.804688 56.65625 54.464844 Z M 53.90625 54.464844 C 53.90625 51.851562 52.5 51.40625 50.425781 51.40625 L 46.457031 51.40625 L 46.457031 57.527344 L 50.425781 57.527344 C 52.503906 57.527344 53.90625 57.082031 53.90625 54.46875 Z M 53.90625 54.464844 " fill-opacity="1" fill-rule="nonzero"/><path fill="#000000" d="M 57.648438 49.082031 L 60.398438 49.082031 L 60.398438 59.847656 L 57.648438 59.847656 Z M 57.648438 49.082031 " fill-opacity="1" fill-rule="nonzero"/><path fill="#000000" d="M 61.3125 54.449219 C 61.3125 50.878906 63.332031 48.929688 68.03125 48.929688 C 72.734375 48.929688 74.75 50.894531 74.75 54.449219 C 74.75 58 72.722656 60 68.03125 60 C 63.34375 60 61.3125 58.035156 61.3125 54.449219 Z M 72.003906 54.449219 C 72.003906 52.261719 70.902344 51.25 68.03125 51.25 C 65.164062 51.25 64.0625 52.25 64.0625 54.449219 C 64.0625 56.644531 65.175781 57.679688 68.03125 57.679688 C 70.890625 57.679688 72.003906 56.644531 72.003906 54.449219 Z M 72.003906 54.449219 " fill-opacity="1" fill-rule="nonzero"/><path stroke-linecap="butt" transform="matrix(0, -0.741477, 0.741477, 0, 150.128142, 45.831667)" fill="none" stroke-linejoin="miter" d="M -0.000490999 1.997678 L 43.852002 1.997678 " stroke="#000000" stroke-width="4" stroke-opacity="1" stroke-miterlimit="4"/></svg>